<svg xmlns="http://www.w3.org/2000/svg" xmlns:xlink="http://www.w3.org/1999/xlink" fill="none" version="1.1" width="216.739990234375" height="274.05999755859375" viewBox="0 0 216.739990234375 274.05999755859375"><defs><linearGradient x1="0.3392815589904785" y1="1.0662877559661865" x2="0.6855206489562988" y2="-0.15365804731845856" id="master_svg0_1_99"><stop offset="12.999999523162842%" stop-color="#30E0DF" stop-opacity="1"/><stop offset="91.00000262260437%" stop-color="#2380F2" stop-opacity="1"/></linearGradient><linearGradient x1="-0.18508604168891907" y1="0.8085920810699463" x2="0.7067686319351196" y2="0.4262004494667053" id="master_svg1_1_000"><stop offset="0%" stop-color="#2380F2" stop-opacity="1"/><stop offset="9.000000357627869%" stop-color="#2383F1" stop-opacity="0.9700000286102295"/><stop offset="21.99999988079071%" stop-color="#248AF0" stop-opacity="0.8999999761581421"/><stop offset="37.00000047683716%" stop-color="#2696EE" stop-opacity="0.7699999809265137"/><stop offset="54.00000214576721%" stop-color="#28A7EA" stop-opacity="0.6000000238418579"/><stop offset="72.00000286102295%" stop-color="#2BBCE6" stop-opacity="0.3700000047683716"/><stop offset="91.00000262260437%" stop-color="#2FD6E1" stop-opacity="0.10999999940395355"/><stop offset="98.00000190734863%" stop-color="#30E0DF" stop-opacity="0"/></linearGradient><linearGradient x1="0.5" y1="-0.125" x2="0.5" y2="1.143424391746521" id="master_svg2_1_001"><stop offset="18.000000715255737%" stop-color="#30E0DF" stop-opacity="1"/><stop offset="75.99999904632568%" stop-color="#2380F2" stop-opacity="1"/></linearGradient></defs><g><g><g><path d="M0,50.43000030517578L0,151.31000030517578L87.36,201.74000030517578L87.36,100.87000030517578L0,50.43000030517578Z" fill="#2380F2" fill-opacity="1"/></g><g><path d="M87.36,0L0,50.43L87.36,100.87L174.72,50.43L87.36,0Z" fill="#30E0DF" fill-opacity="1"/></g><g><path d="M87.35999298095703,201.74000030517578L174.71999298095704,151.31000030517578L174.71999298095704,93.39000030517579L124.71999298095703,122.44000030517579L124.71999298095703,143.38000030517577L158.33999298095705,123.72000030517579L158.33999298095705,141.8600003051758L106.03999298095704,172.0500003051758L105.94999298095703,111.60000030517578L174.71999298095704,71.96000030517578L174.71999298095704,50.43000030517578L87.35999298095703,100.87000030517578L87.35999298095703,201.74000030517578Z" fill="url(#master_svg0_1_99)" fill-opacity="1"/></g><g><path d="M87.36000122070313,0L43.970001220703125,75.82L174.72000122070312,50.43" fill="url(#master_svg1_1_000)" fill-opacity="1"/></g><g><path d="M0,151.30999969482423L43.97,75.81999969482422L87.36,201.73999969482423" fill="url(#master_svg2_1_001)" fill-opacity="1"/></g></g></g></svg>